<svg xmlns="http://www.w3.org/2000/svg" width="453.776" height="581.981" viewBox="0 0 453.776 581.981">
  <g id="Group_23" data-name="Group 23" transform="translate(-1182.029 -1510)">
    <g id="Head_Front_Curly" data-name="Head/Front/Curly" transform="translate(1536.278 1661.821) rotate(180)">
      <g id="Head" transform="translate(40.486)">
        <path id="Path_76" data-name="Path 76" d="M13.938,64.962C6.165,74.086.9,85.268,1.783,97.8c2.533,36.1,52.786,28.159,62.561,9.938s8.614-64.438-4.02-67.695c-5.038-1.3-15.771,1.883-26.7,8.467L40.486,0H0Z" fill="#b28b67" fill-rule="evenodd"/>
      </g>
      <path id="hair" d="M122.766,85.761a8.758,8.758,0,0,1-6.133,6.219,8.081,8.081,0,0,1-2.256.224c-.272-.011-.348-.089-.475.1a2.5,2.5,0,0,0-.135.651,11.678,11.678,0,0,1-3.451,5.968,15.063,15.063,0,0,1-9.048,4.28,13.189,13.189,0,0,1-5.439-.742,21.533,21.533,0,0,1-2.641-1.129c-.258-.129-1.094-.762-1.352-.721-.286.045-.86.755-1.092.933a15.994,15.994,0,0,1-9.989,3.042c-4.035-.03-7.921-.232-11.286-2.692a22.6,22.6,0,0,1-2.037-1.691c-.34-.316-.67-.644-.984-.985-.19-.206-.374-.417-.552-.633-.3-.367-.253-.488-.675-.232a8.389,8.389,0,0,1-5.387,1.212,12.054,12.054,0,0,1-3.252-.919c-.353-.151-1.17-.753-1.547-.759s-1.179.553-1.564.694a12.819,12.819,0,0,1-6.5.6A16.782,16.782,0,0,1,40.6,96.679a8.564,8.564,0,0,1-2.361-2.147c-.278-.383-.529-.789-.843-1.144-.184-.208-.549-.422-.648-.685a14,14,0,0,1-2.7,1.192,6.652,6.652,0,0,1-3.8-.145,15.112,15.112,0,0,1-5.992-4.258,17.017,17.017,0,0,1-2.219-2.979q-.453-.768-.83-1.576a5.882,5.882,0,0,0-.365-.821c-.208-.3-.347-.308-.724-.44a11.689,11.689,0,0,1-4.979-3.333,11.476,11.476,0,0,1-2.577-5.465,2.779,2.779,0,0,0-.1-.673c-.095-.088-.479-.049-.624-.066a13.145,13.145,0,0,1-1.5-.264,12.358,12.358,0,0,1-2.631-.946A13.745,13.745,0,0,1,.971,64.885,16.322,16.322,0,0,1,1.226,53.71a10.915,10.915,0,0,1,.83-1.636c.2-.319.262-.32.134-.655-.144-.373-.406-.735-.577-1.1A15.772,15.772,0,0,1,.422,46.584a17.52,17.52,0,0,1-.205-6.458,9.321,9.321,0,0,1,1-2.834,8.129,8.129,0,0,1,.874-1.268c.172-.2.354-.4.545-.587a3.617,3.617,0,0,0,.345-.32c.226-.291.274-.052.157-.479a19.158,19.158,0,0,0-.76-1.768c-.234-.6-.445-1.206-.638-1.819a26.838,26.838,0,0,1-.928-3.791,11.9,11.9,0,0,1,.84-7.364,7.365,7.365,0,0,1,2.084-2.48A7.753,7.753,0,0,1,5.1,16.586c.248-.118.565-.168.678-.408.122-.258-.059-.771-.1-1.059a17.656,17.656,0,0,1,.207-7.607A10.508,10.508,0,0,1,10.053,1.92C13.864-.65,19-.5,23.007,1.552A13.6,13.6,0,0,1,25.9,3.54C28.118.553,32.684.647,35.926,1.5a14.4,14.4,0,0,1,9.149,7.56c2.554-3.109,7.913-2.1,9.684,1.272a8.067,8.067,0,0,1,.817,2.656c.067.484.024.972.074,1.453a7.5,7.5,0,0,0,.707,1.8,9.929,9.929,0,0,1,.754,3.585,18.219,18.219,0,0,1-.137,1.925,6.615,6.615,0,0,0,.2,1.691,7.731,7.731,0,0,0-3.274.409,6.463,6.463,0,0,0-2.531,1.78,14.768,14.768,0,0,0-3.185,5.954c-1.44,4.715-.85,10.373,3.893,12.96,2.209,1.206,8.829,1.2,11.46.606,2.767-.626,5.9-6.732,6.058-7.306.1-.355.047-.795.374-1.031.717-.52,1.9.383,2.428.828a9.575,9.575,0,0,1,2.128,2.83,35.01,35.01,0,0,1,2.918,7.158c.539,1.907.884,3.874,1.589,5.733a8.772,8.772,0,0,0,3.527,4.551,31.064,31.064,0,0,0,6.068,2.456,15.057,15.057,0,0,1,5.613,3.084,7.746,7.746,0,0,1,.963,1.073c.22.308.438.9.774,1.092.522.3,1.284-.486,1.736-.773a20.061,20.061,0,0,0,5.584-5.543A34.485,34.485,0,0,0,107,52.7c.737-1.775,1.2-4.049,2.494-5.5.579-.65,4.881-1.043,6.275-.476a7.925,7.925,0,0,1,3.423,2.963,4.6,4.6,0,0,1,.39,3.017c-.121.608-.366,1.177-.5,1.774a5.516,5.516,0,0,1-.461,1.436,3.539,3.539,0,0,1-2.208,1.76,10.386,10.386,0,0,1,2.385,3.235,13.9,13.9,0,0,1,1.235,4.214,5.121,5.121,0,0,1-.683,3.283,8.644,8.644,0,0,1-2.8,2.326,18.2,18.2,0,0,1,3.9,4.249C122.535,78.1,123.825,82.038,122.766,85.761Z" transform="translate(0 47.233)" fill="#191847" fill-rule="evenodd"/>
    </g>
    <g id="Objects_Seat_Cube-2" data-name="Objects/Seat/Cube-2" transform="translate(1635.805 2081.859) rotate(180)">
      <path id="Seat" d="M26.99,209.176H220.984a26.99,26.99,0,0,0,26.99-26.99V26.99A26.989,26.989,0,0,0,220.984,0H26.99A26.99,26.99,0,0,0,0,26.99V182.185A26.99,26.99,0,0,0,26.99,209.176Zm26.99-47.233a6.748,6.748,0,0,1-6.748-6.748V53.981a6.748,6.748,0,0,1,6.748-6.748H193.994a6.748,6.748,0,0,1,6.748,6.748V155.195a6.748,6.748,0,0,1-6.748,6.748Z" fill="#c5cfd6" fill-rule="evenodd"/>
    </g>
    <path id="Skin" d="M257.034,0c-21.614,47.837-37.245,89.493-43.519,111.47-10.742,37.631-18.915,70.743-20.982,83.109-4.926,29.488,37.891,31.205,43.551,16.55,8.566-22.181,23.52-95.058,41.489-205.136ZM6.326,150.128C26.157,157.967,95.6,182.5,129.1,189.437c9.625,1.994,18.954,3.847,27.724,5.521,26.069,4.977,39.576-42.053,14.469-45.667-62.528-9-151.173-18.292-158.759-19.335C1.9,128.495-6.137,145.2,6.326,150.128Z" transform="translate(1524.237 2076.226) rotate(180)" fill="#b28b67" fill-rule="evenodd"/>
    <path id="Leg-Back" d="M107.265,167.382,0,221.986v11.887H12.756q155.662-39.665,159.086-50.839c.024-.08.047-.16.068-.241.052-.069.1-.137.153-.207C192.629,154.3,204.947,16.218,208.988,5.879L169.581,0C154.5,55.9,106.275,94.842,107.555,161.794A21.979,21.979,0,0,0,107.265,167.382Z" transform="translate(1458.681 2035.708) rotate(180)" fill="#0bbba8" fill-rule="evenodd"/>
    <path id="Leg-Front" d="M84.822,42.631c-9.814,1.965-18.853,3.718-26.586,5.075C8.28,56.467-6.286,83.208,2.327,141.552H94.368c15.035-4.319,93.171-37.086,133.712-54.514C254.912,75.5,246.454,33.92,231.258,23.1a1.484,1.484,0,0,0-.843-1.317C148.678-12.1,84.016,5.68,62.415,0L52.423,31.518Z" transform="translate(1534.591 1943.386) rotate(180)" fill="#03ceb8" fill-rule="evenodd"/>
    <g id="Accessories_Shoe_Flat-Sneaker" data-name="Accessories/Shoe/Flat-Sneaker" transform="matrix(-0.438, 0.899, -0.899, -0.438, 1534.504, 1929.338)">
      <path id="shoe" d="M2.831,24.625Q0,17.069,0,13.317A84.643,84.643,0,0,1,1.52,0H96.664q3.708,12.261-4.282,13.238T79.107,15L34.885,34.718a1.687,1.687,0,0,1-2.228-.854l-.019-.044-2.843-6.9q-7.4-3.451-12.022-3.451-3.758,0-10.378,3.035h0a3.374,3.374,0,0,1-4.473-1.661Q2.873,24.738,2.831,24.625Z" transform="translate(0 0)" fill="#e4e4e4" fill-rule="evenodd"/>
    </g>
    <g id="Accessories_Shoe_Flat-Sneaker-2" data-name="Accessories/Shoe/Flat-Sneaker" transform="translate(1279.869 2091.981) rotate(180)">
      <path id="shoe-2" data-name="shoe" d="M2.831,24.626Q0,17.069,0,13.317A84.643,84.643,0,0,1,1.52,0H96.665q3.708,12.261-4.282,13.238T79.107,15L34.885,34.718a1.687,1.687,0,0,1-2.228-.854l-.019-.044-2.843-6.9q-7.4-3.451-12.022-3.451-3.758,0-10.378,3.035h0a3.374,3.374,0,0,1-4.473-1.661Q2.873,24.738,2.831,24.626Z" transform="translate(0)" fill="#e4e4e4" fill-rule="evenodd"/>
    </g>
    <g id="Body_Jacket" data-name="Body/Jacket" transform="translate(1630.47 1930.303) rotate(180)">
      <path id="Skin-2" data-name="Skin" d="M269.7,155.252l47.786-46.618q20.858-8.894,34.178-19.646c2-2.409,4.17-7.024-5.226-4.959s-19.372,3.816-21.139.759,3.438-7.738.174-11.737q-3.264-4-21.953,25.442l-49.691,29.3ZM57.6,148.678l35.252-.139Q60.2,43.14,57.6,36.691c-3.9-9.673,4.357-24.406,7.889-32.323C53.984-.78,55.21,18.285,40.7,11.534,27.45,5.37,17.373-5.8,2.069,3.648.187,4.808-1.875,9.179,3.107,12.6,15.519,21.106,33.4,36,35.822,40.9Q40.765,50.932,57.6,148.678Z" transform="translate(0 0)" fill="#b28b67" fill-rule="evenodd"/>
      <path id="Coat-Back" d="M0,216.484l14.313,3.764q45.728-90.463,145.942-158.9L118.155,0C49.46,67.272,4.474,138.943,0,216.484Z" transform="translate(138.91 80.937) rotate(-5)" fill="#191847" fill-rule="evenodd"/>
      <path id="Shirt" d="M0,0H129.891Q84.752,109.754,84.752,186.469L45.57,192.307C14.777,142.782,6.081,81.807,0,0Z" transform="translate(94.192 113.286)" fill="#dde3e9" fill-rule="evenodd"/>
      <path id="Coat-Front" d="M103.782,247.947l.017.028h2.557q4.59-.158,13.984-.57l9.467-27.057q1.5-49.482,17.545-199.441H62.206Q62.541,10.551,63.31,0H0Q14.205,160.262,103.751,247.974Z" transform="translate(35.15 57.618)" fill="#2f3676" fill-rule="evenodd"/>
      <path id="Shade" d="M5.882,89.012Q9.517,24.451,24.084,0H.28A445.078,445.078,0,0,0,5.882,89.012Z" transform="translate(97.099 77.861)" fill="rgba(0,0,0,0.1)" fill-rule="evenodd"/>
      <path id="Light" d="M0,0,41.985,19.519V0Z" transform="translate(116.309 130.155)" fill="rgba(255,255,255,0.2)" fill-rule="evenodd"/>
    </g>
  </g>
</svg>
