<svg id="window-api-coding-configuration" xmlns="http://www.w3.org/2000/svg" width="238.02" height="238.02" viewBox="0 0 238.02 238.02">
  <g id="Group_476" data-name="Group 476">
    <circle id="Ellipse_822" data-name="Ellipse 822" cx="119.01" cy="119.01" r="119.01" fill="#f4f1f0"/>
    <g id="_x32_" transform="translate(42.621 67.128)">
      <g id="Group_473" data-name="Group 473" transform="translate(19.983 32.002)">
        <path id="Path_7562" data-name="Path 7562" d="M137.188,214.092l8.977,8.976-8.977,8.973,3.852,3.855,12.828-12.828L141.04,210.24Z" transform="translate(-137.188 -210.24)" fill="#675f58"/>
        <rect id="Rectangle_1409" data-name="Rectangle 1409" width="16.351" height="5.453" transform="translate(23.727 7.374)" fill="#675f58"/>
      </g>
      <g id="Group_475" data-name="Group 475">
        <path id="Path_7563" data-name="Path 7563" d="M188.493,235.884H108.607a5.228,5.228,0,0,1-5.174-5.181v-65.78H212.125v21.615h5.6a3.63,3.63,0,0,1,.611.059V157.625a11.408,11.408,0,0,0-11.383-11.388H108.607a11.413,11.413,0,0,0-11.385,11.388V230.7a11.406,11.406,0,0,0,11.385,11.388h81.372l-1.169-1.167A3.847,3.847,0,0,1,188.493,235.884Zm17.25-82.348a2.589,2.589,0,1,1-2.588,2.59A2.589,2.589,0,0,1,205.743,153.536Zm-20.34.154h12.728a2.435,2.435,0,0,1,0,4.869H185.4a2.435,2.435,0,0,1,0-4.869Z" transform="translate(-97.222 -146.237)" fill="#675f58"/>
        <g id="Group_474" data-name="Group 474" transform="translate(92.22 43.207)">
          <path id="Path_7564" data-name="Path 7564" d="M331.917,265.541a14.066,14.066,0,1,0,6.168,3.594A14.085,14.085,0,0,0,331.917,265.541Zm0,17.19a5.261,5.261,0,0,1-3.8,1.638,5.135,5.135,0,0,1-2.4-.607,5.224,5.224,0,0,1,0-9.316,5.161,5.161,0,0,1,2.4-.6,5.247,5.247,0,0,1,3.8,8.887Z" transform="translate(-297.837 -248.829)" fill="#675f58"/>
          <path id="Path_7565" data-name="Path 7565" d="M341.389,258.812l-6.369-.754a23.31,23.31,0,0,0-3.326-8l3.977-5.04a.953.953,0,0,0-.07-1.239l-4.514-4.512a.966.966,0,0,0-1.242-.073l-5.035,3.977a23.434,23.434,0,0,0-8-3.316l-.755-6.376a.962.962,0,0,0-.925-.825h-6.386a.962.962,0,0,0-.923.825l-.754,6.376a23.4,23.4,0,0,0-8,3.316l-5.043-3.977a.97.97,0,0,0-1.242.073l-4.505,4.512a.942.942,0,0,0-.071,1.239l3.971,5.04a23.454,23.454,0,0,0-3.323,8l-6.367.754a.959.959,0,0,0-.824.928v6.38a.961.961,0,0,0,.824.927l6.367.749a23.486,23.486,0,0,0,3.323,8.008l-2.594,3.288-1.378,1.75a.938.938,0,0,0,.071,1.237l3.214,3.22.068.068,1.223,1.227a.97.97,0,0,0,1.248.07l1.644-1.3.076-.068,3.318-2.612a23.573,23.573,0,0,0,5.415,2.6c.068.025.135.057.2.082a23.955,23.955,0,0,0,2.387.643l.754,6.369a.966.966,0,0,0,.922.828l6.385,0a.959.959,0,0,0,.925-.824l.754-6.369a24.266,24.266,0,0,0,2.379-.643,23.688,23.688,0,0,0,5.62-2.682l3.385,2.674,1.649,1.3a.961.961,0,0,0,1.242-.07l1.234-1.232,3.28-3.282a.951.951,0,0,0,.07-1.237l-3.977-5.038a23.325,23.325,0,0,0,3.326-8.008l6.369-.749a.971.971,0,0,0,.83-.927v-6.38A.967.967,0,0,0,341.389,258.812Zm-27.32,20.953a17.281,17.281,0,0,1-2.132.15,16.975,16.975,0,0,1-2.4-33.781,16.969,16.969,0,1,1,4.533,33.632Z" transform="translate(-281.661 -232.652)" fill="#ff931e"/>
        </g>
      </g>
    </g>
  </g>
</svg>
