<svg xmlns="http://www.w3.org/2000/svg" xmlns:xlink="http://www.w3.org/1999/xlink" width="717.747" height="626.927" viewBox="0 0 717.747 626.927"><defs><linearGradient id="a" x1="0.504" y1="0.317" x2="0.482" y2="1.249" gradientUnits="objectBoundingBox"><stop offset="0.03" stop-color="#fff"/><stop offset="1" stop-color="#fff" stop-opacity="0"/></linearGradient></defs><g transform="translate(0.032 -0.023)"><rect width="421.567" height="600.253" rx="210.784" transform="translate(147.076 26.697)" fill="#f8f8ff"/><path d="M833.65,357.552s16.047-16.587,18.859-36.423,20.77-24.542,33.045-20.77,23.625,38.129,53.884,37.949,81.2-24.73,83.089-31.34,4.723-18.859,25.493-21.713,21.713-22.665,51.93-22.665,83.406,5.066,88.13,6.952,27.036,5.023,31.717,31.185c0,0,3.8,11.007-2.812,42.14s39.655,50.97,50.987,50.97,44.378,69.871,7.552,129.353-32.1,82.138-70.814,58.539-34.931.943-38.712-23.608-22.656-11.332-28.288-24.55,14.161-39.655.943-45.321-46.289,4.723-52.873-29.265-47.215,6.609-28.288,37.769-20.77,7.552-20.77,26.436-22.656,33.988-11.332,48.149,40.606,93.479-50.035,91.584-39.663,16.056-58.539,17.941-29.351-23.608-59.568-23.608S723.182,651.6,726.011,606.28s30.071-36.86,29.668-76.48-46.109-85.455,23.008-127.236S833.65,357.552,833.65,357.552Z" transform="translate(-652.578 -172.194)" fill="#b0c0f4"/><rect width="146.146" height="341.315" transform="translate(25.986 80.452)" fill="url(#a)"/><circle cx="23.008" cy="23.008" r="23.008" transform="translate(80.093 95.479)" fill="#bac5f4"/><rect width="82.524" height="9.129" rx="4.565" transform="translate(39.787 166.113)" fill="#bac5f4"/><rect width="20.367" height="9.129" rx="4.565" transform="translate(141.598 166.113)" fill="#bac5f4"/><rect width="57.099" height="9.129" rx="4.565" transform="translate(39.787 185.358)" fill="#bac5f4"/><rect width="10.184" height="9.129" rx="4.565" transform="translate(151.773 185.358)" fill="#bac5f4"/><rect width="91.164" height="9.129" rx="4.565" transform="translate(40.499 206.745)" fill="#bac5f4"/><rect width="14.607" height="9.129" rx="4.565" transform="translate(148.061 206.745)" fill="#bac5f4"/><rect width="76.455" height="9.129" rx="4.565" transform="translate(40.499 225.81)" fill="#bac5f4"/><rect width="20.367" height="9.129" rx="4.565" transform="translate(142.31 225.81)" fill="#bac5f4"/><rect width="45.586" height="9.129" rx="4.565" transform="translate(40.499 245.765)" fill="#bac5f4"/><rect width="28.108" height="9.129" rx="4.565" transform="translate(134.569 245.765)" fill="#bac5f4"/><rect width="74.637" height="9.129" rx="4.565" transform="translate(40.499 265.01)" fill="#bac5f4"/><rect width="20.367" height="9.129" rx="4.565" transform="translate(142.31 265.01)" fill="#bac5f4"/><path d="M1125.119,622.252a26.694,26.694,0,0,1,4.055-30.971c5.426-5.777,9.841-13.278,9.481-22.2-.857-22.287,20.5-30.3,24.07-20.5s1.783,43.718,16.038,46.349,35.66,18.859,18.721,39.277-24.062-11.649-16.938,20.444-33.868,58.513-43.718,34.151-40.066-15.738-18.713-32.368C1132.38,645.319,1130.554,632.4,1125.119,622.252Z" transform="translate(-707.508 -212.442)" fill="#b0c0f4"/><path d="M1240.56,330.486l2.349-2.486" transform="translate(-726.058 -181.534)" fill="none" stroke="#fff" stroke-linecap="round" stroke-miterlimit="10" stroke-width="1"/><path d="M1247.66,321.075c3.48-3.695,8.118-8.641,13.012-13.9" transform="translate(-727.072 -178.561)" fill="none" stroke="#fff" stroke-linecap="round" stroke-miterlimit="10" stroke-width="1" stroke-dasharray="6.35 6.35"/><path d="M1265,304.43l2.332-2.52" transform="translate(-729.548 -177.808)" fill="none" stroke="#fff" stroke-linecap="round" stroke-miterlimit="10" stroke-width="1"/><circle cx="6.583" cy="6.583" r="6.583" transform="translate(531.2 115.375)" fill="#fff"/><circle cx="6.583" cy="6.583" r="6.583" transform="translate(500.349 149.441)" fill="#fff"/><path d="M854,534.7s.334-1.14,1.149-3.223" transform="translate(-670.862 -210.589)" fill="none" stroke="#fff" stroke-linecap="round" stroke-miterlimit="10" stroke-width="1"/><path d="M858.58,502.744C871.7,475.365,923,397.025,1086.958,374.42" transform="translate(-671.516 -188.162)" fill="none" stroke="#fff" stroke-linecap="round" stroke-miterlimit="10" stroke-width="1" stroke-dasharray="8.03 8.03"/><path d="M1129,373.807l3.429-.437" transform="translate(-710.129 -188.012)" fill="none" stroke="#fff" stroke-linecap="round" stroke-miterlimit="10" stroke-width="1"/><path d="M846.26,543.47s.626,1.054,1.774,2.923" transform="translate(-669.756 -212.301)" fill="none" stroke="#fff" stroke-linecap="round" stroke-miterlimit="10" stroke-width="1"/><path d="M852.79,554c10.038,15.807,31.914,48.287,51.75,64.531" transform="translate(-670.689 -213.804)" fill="none" stroke="#fff" stroke-linecap="round" stroke-miterlimit="10" stroke-width="1" stroke-dasharray="8.42 8.42"/><path d="M916.48,631.9c.934.7,1.869,1.363,2.794,1.972" transform="translate(-679.783 -224.928)" fill="none" stroke="#fff" stroke-linecap="round" stroke-miterlimit="10" stroke-width="1"/><circle cx="29.428" cy="29.428" r="29.428" transform="translate(147.076 300.755)" fill="none" stroke="#fff" stroke-miterlimit="10" stroke-width="4"/><circle cx="11.675" cy="11.675" r="11.675" transform="translate(164.828 319.494)" fill="#fff"/><circle cx="29.428" cy="29.428" r="29.428" transform="translate(445.582 152.449)" fill="none" stroke="#fff" stroke-miterlimit="10" stroke-width="4"/><circle cx="11.675" cy="11.675" r="11.675" transform="translate(463.335 171.197)" fill="#fff"/><circle cx="6.583" cy="6.583" r="6.583" transform="translate(426.355 177.789)" fill="#fff"/><circle cx="6.583" cy="6.583" r="6.583" transform="translate(232.908 402.369)" fill="#fff"/><rect width="72.743" height="4.56" rx="2.28" transform="translate(256.258 408.953)" fill="#f8f8ff"/><rect width="72.743" height="4.56" rx="2.28" transform="translate(256.258 421.768)" fill="#f8f8ff"/><rect width="72.743" height="4.56" rx="2.28" transform="translate(256.258 437.918)" fill="#f8f8ff"/><rect width="46.581" height="4.56" rx="2.28" transform="translate(256.258 450.784)" fill="#f8f8ff"/><rect width="72.743" height="4.56" rx="2.28" transform="translate(545.353 131.396)" fill="#e1e6fb"/><rect width="72.743" height="4.56" rx="2.28" transform="translate(545.353 144.212)" fill="#e1e6fb"/><rect width="72.743" height="4.56" rx="2.28" transform="translate(545.353 160.362)" fill="#e1e6fb"/><rect width="46.581" height="4.56" rx="2.28" transform="translate(545.353 173.228)" fill="#e1e6fb"/><path d="M927.42,634.2s1.192.2,3.429.471" transform="translate(-681.345 -225.256)" fill="none" stroke="#bac5f4" stroke-miterlimit="10" stroke-width="1"/><path d="M939.19,600.812c47.147,4.492,242.976,10.132,219.635-208.842" transform="translate(-683.026 -190.668)" fill="none" stroke="#bac5f4" stroke-miterlimit="10" stroke-width="1" stroke-dasharray="7.86 7.86"/><path d="M1194.931,387.479c-.129-1.132-.266-2.263-.411-3.429" transform="translate(-719.484 -189.537)" fill="none" stroke="#bac5f4" stroke-miterlimit="10" stroke-width="1"/><path d="M1355.185,381.984s-13.93-14.17-.857-24.2,16.578-9.429,16.69.566-9.669,11.512-3.746,22.047-1.243,13.3-5.675,11.007S1355.185,381.984,1355.185,381.984Z" transform="translate(-741.504 -184.754)" fill="#b0c0f4"/><path d="M1351.486,390.046s.857,7.715,7.826,11.032,18.8,11.144,17.753,17.358-14.9-11.144-19.236-9.618-13.818-4.157-16.664-11.452-2.306-13.1,2-13.047S1351.486,390.046,1351.486,390.046Z" transform="translate(-740.172 -189.576)" fill="#b0c0f4"/><path d="M1320.949,229.757h109.637c17.607,0,27.645-20.624,16.287-34.117-6.618-7.878-18.721-13.784-40.375-12.927,0,0-30.268-57.433-72.674-.086,0,0-34.888-3.429-37.563,18.859l-.077.66a24.859,24.859,0,0,0,24.765,27.611Z" transform="translate(-733.979 -157.14)" fill="#f8f8ff"/><path d="M665.265,805.308h109.6c17.607,0,27.645-20.624,16.287-34.108-6.626-7.886-18.722-13.784-40.383-12.935,0,0-30.26-57.433-72.674-.077,0,0-34.88-3.429-37.554,18.9a5.556,5.556,0,0,1-.077.66,24.859,24.859,0,0,0,24.8,27.559Z" transform="translate(-640.35 -239.323)" fill="#f8f8ff"/></g></svg>