<svg xmlns="http://www.w3.org/2000/svg" width="71.563" height="71" viewBox="0 0 71.563 71"><path d="M38.754,5h31.4a4.091,4.091,0,0,1,4.409,4.381V71.633A4.082,4.082,0,0,1,70.225,76H7.339A4.082,4.082,0,0,1,3,71.689V9.3A4.071,4.071,0,0,1,7.339,5Zm.028,69.028H70.056a2.209,2.209,0,0,0,2.536-2.536V9.508a2.209,2.209,0,0,0-2.536-2.536H7.508A2.209,2.209,0,0,0,4.972,9.508V71.492a2.209,2.209,0,0,0,2.536,2.536Z" transform="translate(-3 -5)"/><path d="M177.784,89.872V117.2c-.282.014-.521.056-.775.056-3.62,0-7.227-.014-10.847.014-.676,0-.8-.225-.8-.845q.021-12.784.014-25.568V89.9H159.4V80.659h5.973v-.845c0-2.367-.028-4.747.014-7.114a9.289,9.289,0,0,1,3.564-7.692,10.773,10.773,0,0,1,6.043-2.254c3.916-.2,7.833-.183,11.749-.254.338,0,.535.085.521.465-.014,2.987-.014,5.959-.028,8.945,0,.042-.028.085-.1.225h-6.48a2.67,2.67,0,0,0-2.846,2.846v5.635h9.509c-.394,3.141-.775,6.17-1.169,9.269C183.334,89.872,180.6,89.872,177.784,89.872Z" transform="translate(-137.367 -54.4)"/></svg>