<svg xmlns="http://www.w3.org/2000/svg" width="185.471" height="183.91" viewBox="0 0 185.471 183.91">
  <g id="Layer_6" data-name="Layer 6" transform="translate(1 1)">
    <path id="Path_73" data-name="Path 73" d="M97.734,194.56H34.552A22.009,22.009,0,0,1,12.59,172.645V34.612A22.009,22.009,0,0,1,34.552,12.65H170.118" transform="translate(-12.59 -12.65)" fill="none" stroke="#000" stroke-linecap="round" stroke-linejoin="round" stroke-width="2"/>
    <path id="Path_74" data-name="Path 74" d="M101.453,17.28V155.218a22.009,22.009,0,0,1-21.962,22.009H36.8" transform="translate(78.038 4.682)" fill="none" stroke="#000" stroke-linecap="round" stroke-linejoin="round" stroke-width="2"/>
    <ellipse id="Ellipse_13" data-name="Ellipse 13" cx="4.743" cy="4.743" rx="4.743" ry="4.743" transform="translate(174.984 1.423)"/>
    <path id="Path_75" data-name="Path 75" d="M47.011,163.9V104.656H26.14V76.48H47.011V49.3a28.46,28.46,0,0,1,28.46-28.46h29.551v26.8H83.393A6.973,6.973,0,0,0,76.42,54.8V76.338h28.46V104.8H76.42v59.1" transform="translate(38.133 18.008)" fill="none" stroke="#000" stroke-linecap="round" stroke-linejoin="round" stroke-width="2"/>
  </g>
</svg>
