<svg id="Group_469" data-name="Group 469" xmlns="http://www.w3.org/2000/svg" width="238.017" height="238.017" viewBox="0 0 238.017 238.017">
  <circle id="Ellipse_820" data-name="Ellipse 820" cx="119.008" cy="119.008" r="119.008" fill="#f4f1f0"/>
  <g id="_x32_3" transform="translate(48.926 70.793)">
    <path id="Path_7556" data-name="Path 7556" d="M182.406,240.724l1.6,3.419s0,1-.669,1H145.02c-.666,0-.832-1-.832-1l1.6-3.419Zm-.077-7.26h-36.64v6.423h36.64Zm-72.852-16.446v-60.01H215.753v6.839h6.971V152.051a3.346,3.346,0,0,0-3.337-3.337H106.115a3.345,3.345,0,0,0-3.337,3.337v76.1a3.573,3.573,0,0,0,3.337,3.747H195.66V217.018H109.477Z" transform="translate(-102.778 -148.714)" fill="#675f58"/>
    <path id="Path_7557" data-name="Path 7557" d="M341.541,188.911H314.333a8.061,8.061,0,0,0-8.04,8.035v61.219a8.065,8.065,0,0,0,8.04,8.043h27.208a8.064,8.064,0,0,0,8.037-8.043V196.945A8.061,8.061,0,0,0,341.541,188.911Zm-18.551,2.347c0-.268.445-.494.986-.494H331.9c.543,0,.986.225.986.494v.25c0,.268-.444.494-.986.494h-7.921c-.542,0-.986-.225-.986-.494Zm5.876,2.911a.93.93,0,1,1-.93-.933A.93.93,0,0,1,328.866,194.169Zm4.018,67.952a.992.992,0,0,1-.986.992h-7.921a.992.992,0,0,1-.986-.992v-.493a.988.988,0,0,1,.986-.984H331.9a.987.987,0,0,1,.986.984Zm13.36-3.956H310.2V196.945h36.043Z" transform="translate(-209.413 -169.776)" fill="#ff931e"/>
  </g>
</svg>
