<svg xmlns="http://www.w3.org/2000/svg" width="315.116" height="25.786" viewBox="0 0 315.116 25.786">
  <g id="Group_19" data-name="Group 19" transform="translate(-244.209 -3414)">
    <path id="Icon_awesome-js" data-name="Icon awesome-js" d="M0,2.25V24.931H22.681V2.25ZM12.343,19.939a2.9,2.9,0,0,1-3.184,3.215,3.311,3.311,0,0,1-3.2-1.949L7.7,20.157c.334.592.638,1.094,1.372,1.094.7,0,1.144-.273,1.144-1.342V12.664h2.131Zm5.042,3.215A4.09,4.09,0,0,1,13.5,20.977l1.736-1a2.326,2.326,0,0,0,2.1,1.3c.881,0,1.448-.44,1.448-1.053,0-.729-.577-.987-1.554-1.418l-.532-.228c-1.539-.653-2.557-1.478-2.557-3.215a2.847,2.847,0,0,1,3.119-2.815,3.139,3.139,0,0,1,3.027,1.706l-1.661,1.063a1.45,1.45,0,0,0-1.372-.911.925.925,0,0,0-1.018.911c0,.638.395.9,1.311,1.3l.532.228c1.812.775,2.83,1.569,2.83,3.351,0,1.914-1.509,2.967-3.529,2.967Z" transform="translate(354.703 3412.75)"/>
    <path id="Icon_simple-visualstudiocode" data-name="Icon simple-visualstudiocode" d="M25,2.82,19.667.253a1.614,1.614,0,0,0-1.841.313L7.609,9.887,3.159,6.508a1.079,1.079,0,0,0-1.378.062L.353,7.868a1.08,1.08,0,0,0,0,1.6l3.859,3.521L.352,16.507a1.08,1.08,0,0,0,0,1.6l1.429,1.3a1.079,1.079,0,0,0,1.378.062l4.45-3.378,10.217,9.321a1.611,1.611,0,0,0,1.84.313L25,23.152a1.62,1.62,0,0,0,.916-1.46V4.28A1.62,1.62,0,0,0,25,2.82ZM19.445,18.87l-7.752-5.884L19.445,7.1V18.87Z" transform="translate(533.405 3413.907)"/>
    <path id="Icon_awesome-html5" data-name="Icon awesome-html5" d="M0,2.25,1.767,22.288l7.928,2.643,7.979-2.643L19.441,2.25ZM15.6,8.725H6.3l.208,2.5H15.4l-.689,7.513L9.751,20.106v.015H9.695l-5-1.382-.3-3.837H6.809l.177,1.929,2.709.734,2.719-.734.3-3.149H4.268L3.62,6.31H15.826L15.6,8.725Z" transform="translate(244.209 3412.75)"/>
    <path id="Icon_awesome-css3-alt" data-name="Icon awesome-css3-alt" d="M0,2.25,1.767,22.288,9.72,24.931l7.953-2.643L19.441,2.25ZM15.851,6.3l-.243,2.395-5.837,2.5-.015.005H15.4l-.648,7.422L9.781,20.07l-5-1.478-.324-3.741H6.931l.162,1.939,2.663.673,2.769-.78.187-3.119L4.293,13.54v-.005l-.01.005L4.1,11.2,9.776,8.831l.329-.137H3.883L3.589,6.3Z" transform="translate(299.456 3412.75)"/>
    <path id="Icon_awesome-vuejs" data-name="Icon awesome-vuejs" d="M18.069,4.521H14.175L11.34,9.007,8.91,4.521H0L11.34,23.946,22.681,4.521ZM2.82,6.141H5.544l5.8,10.034L17.132,6.141h2.724L11.34,20.732,2.82,6.141Z" transform="translate(413.19 3412.479)"/>
    <path id="Icon_awesome-react" data-name="Icon awesome-react" d="M21.172,9.6q-.41-.137-.82-.258c.046-.187.086-.375.127-.562.623-3.017.213-5.442-1.169-6.242-1.331-.764-3.5.03-5.7,1.944-.218.187-.43.385-.633.582-.137-.132-.278-.263-.42-.39-2.3-2.045-4.612-2.906-5.994-2.1C5.235,3.344,4.84,5.627,5.4,8.482c.056.284.116.562.187.845-.324.091-.643.192-.942.3C1.939,10.563,0,12.041,0,13.57c0,1.58,2.066,3.164,4.875,4.126.228.076.456.152.689.218-.076.3-.142.6-.2.911-.532,2.81-.116,5.037,1.21,5.8,1.367.79,3.665-.02,5.9-1.979.177-.157.354-.319.532-.491.223.218.456.425.689.628,2.167,1.863,4.308,2.617,5.63,1.853,1.367-.79,1.812-3.184,1.235-6.1q-.068-.334-.152-.683c.162-.046.319-.1.476-.147,2.921-.967,5.037-2.531,5.037-4.136,0-1.534-1.995-3.022-4.749-3.969Zm-6.85-4.3c1.883-1.64,3.64-2.283,4.44-1.823.856.491,1.185,2.476.648,5.083-.035.172-.071.339-.116.506a25.917,25.917,0,0,0-3.407-.537A25.579,25.579,0,0,0,13.73,5.845c.2-.187.39-.365.592-.542ZM8.465,16.2c.258.44.521.881.8,1.311a22.925,22.925,0,0,1-2.349-.38,23.649,23.649,0,0,1,.825-2.253c.233.446.471.886.724,1.321Zm-1.534-6.09c.729-.162,1.5-.294,2.309-.395-.268.42-.532.851-.78,1.286s-.491.871-.719,1.316C7.422,11.56,7.154,10.821,6.931,10.107ZM8.318,13.6c.334-.7.7-1.382,1.083-2.055s.8-1.326,1.235-1.969c.759-.056,1.534-.086,2.324-.086s1.569.03,2.324.086q.645.957,1.23,1.959t1.1,2.045q-.509,1.048-1.094,2.066c-.385.673-.795,1.326-1.225,1.974-.754.056-1.539.081-2.334.081s-1.564-.025-2.309-.071q-.661-.964-1.245-1.974c-.39-.673-.749-1.357-1.088-2.055Zm9.143,2.592c.258-.446.5-.9.739-1.352a23.5,23.5,0,0,1,.856,2.243,22.237,22.237,0,0,1-2.379.405C16.95,17.058,17.208,16.623,17.461,16.188Zm.729-3.873c-.238-.446-.481-.891-.734-1.326s-.506-.856-.775-1.276a23.3,23.3,0,0,1,2.324.405,22.4,22.4,0,0,1-.815,2.2Zm-5.22-5.7a22.231,22.231,0,0,1,1.5,1.812c-1-.046-2.01-.046-3.012,0C11.953,7.779,12.464,7.171,12.971,6.619ZM7.1,3.516c.851-.5,2.739.213,4.729,1.974.127.111.253.233.385.354a25.721,25.721,0,0,0-2.172,2.688,26.687,26.687,0,0,0-3.4.527c-.066-.258-.122-.521-.177-.785-.476-2.45-.162-4.3.638-4.759ZM5.857,16.861c-.213-.061-.42-.127-.628-.2a10.325,10.325,0,0,1-3.189-1.58,2.272,2.272,0,0,1-.952-1.514c0-.926,1.6-2.111,3.908-2.916.289-.1.582-.192.876-.278a26.92,26.92,0,0,0,1.24,3.22,27.674,27.674,0,0,0-1.256,3.265Zm5.9,4.961a9.266,9.266,0,0,1-2.855,1.787,2.241,2.241,0,0,1-1.787.066c-.8-.466-1.139-2.253-.683-4.658.056-.284.116-.567.187-.845a25.327,25.327,0,0,0,3.438.5,26.717,26.717,0,0,0,2.187,2.7C12.085,21.529,11.923,21.681,11.761,21.822ZM13,20.592c-.516-.557-1.033-1.175-1.534-1.838.486.02.987.03,1.493.03.521,0,1.033-.01,1.539-.035A21.833,21.833,0,0,1,13,20.592Zm6.617,1.519a2.25,2.25,0,0,1-.835,1.585c-.8.466-2.521-.142-4.374-1.731-.213-.182-.425-.38-.643-.582A25.044,25.044,0,0,0,15.9,18.668a24.957,24.957,0,0,0,3.453-.532c.051.208.1.415.137.618A9.229,9.229,0,0,1,19.618,22.111Zm.921-5.442c-.142.046-.284.091-.43.132a25.718,25.718,0,0,0-1.291-3.23,25.59,25.59,0,0,0,1.24-3.184c.263.076.516.157.759.238,2.359.81,4.015,2.015,4.015,2.936,0,.992-1.767,2.273-4.293,3.108Zm-7.579-.759a2.319,2.319,0,1,0-2.319-2.319A2.318,2.318,0,0,0,12.96,15.909Z" transform="translate(471.677 3412.749)"/>
  </g>
</svg>
