<svg xmlns="http://www.w3.org/2000/svg" width="1408.197" height="1189.963" viewBox="0 0 1408.197 1189.963"><g transform="translate(-52.685 -52.681)" fill="none"><path d="M537.682,1182.012,464.315,1038.02l-144.427,73.589A111,111,0,0,1,170.593,1063.1L64.807,855.483a111,111,0,0,1,48.508-149.295l142.474-72.594L166.634,458.617a111,111,0,0,1,48.508-149.295L695.039,64.8a111,111,0,0,1,149.295,48.508L950.12,320.928a111,111,0,0,1-48.509,149.295L759.137,542.817l56.736,111.35,377.8-192.5a111,111,0,0,1,149.295,48.509L1448.761,717.8a111,111,0,0,1-48.509,149.295L686.977,1230.521a110.932,110.932,0,0,1-149.295-48.509Z" stroke="none"/><path d="M 636.673828125 1239.64306640625 C 645.0076293945313 1239.642456054688 653.3392944335938 1238.66796875 661.4376220703125 1236.746704101563 C 669.77490234375 1234.768432617188 677.909423828125 1231.774780273438 685.6152954101563 1227.848510742188 L 1398.8896484375 864.4166259765625 C 1405.42041015625 861.0891723632813 1411.611083984375 857.1064453125 1417.289794921875 852.578857421875 C 1422.822875976563 848.1675415039063 1427.937866210938 843.1853637695313 1432.49267578125 837.7711791992188 C 1436.965454101563 832.454833984375 1440.943603515625 826.6679077148438 1444.317138671875 820.5713500976563 C 1447.658935546875 814.5321044921875 1450.4365234375 808.136474609375 1452.57275390625 801.5621337890625 C 1454.708740234375 794.9877319335938 1456.220947265625 788.1808471679688 1457.067260742188 781.3306274414063 C 1457.92138671875 774.4155883789063 1458.104370117188 767.3955688476563 1457.610961914063 760.4653930664063 C 1457.1083984375 753.4078979492188 1455.898681640625 746.3706665039063 1454.015258789063 739.5493774414063 C 1452.082397460938 732.5486450195313 1449.415283203125 725.687744140625 1446.087646484375 719.1570434570313 L 1340.298950195313 511.5370178222656 C 1335.625122070313 502.3639221191406 1329.714477539063 493.9475708007813 1322.731079101563 486.521728515625 C 1315.966552734375 479.3284606933594 1308.230224609375 473.0970153808594 1299.737060546875 468.0008239746094 C 1282.884887695313 457.8886413574219 1263.6044921875 452.5437316894531 1243.980590820313 452.5437316894531 C 1235.647583007813 452.5437316894531 1227.315795898438 453.5180969238281 1219.216918945313 455.4399108886719 C 1210.880126953125 457.4181213378906 1202.74560546875 460.412109375 1195.039306640625 464.3388366699219 L 814.5614624023438 658.2022705078125 L 813.199462890625 655.5293579101563 L 755.1019897460938 541.506103515625 L 757.77490234375 540.1441040039063 L 900.2490844726563 467.5499267578125 C 906.77978515625 464.2224731445313 912.9705200195313 460.23974609375 918.6492919921875 455.7120971679688 C 924.182373046875 451.3008422851563 929.2974243164063 446.3186645507813 933.8521728515625 440.9044799804688 C 938.3248901367188 435.5881042480469 942.3032836914063 429.8012084960938 945.6766967773438 423.7046508789063 C 949.0185546875 417.6653747558594 951.7960205078125 411.2695617675781 953.9321899414063 404.6953735351563 C 956.068359375 398.1210021972656 957.58056640625 391.3141174316406 958.4266967773438 384.4639282226563 C 959.2810668945313 377.548828125 959.4639892578125 370.5288391113281 958.9705200195313 363.5986633300781 C 958.468017578125 356.5411987304688 957.2581787109375 349.5039367675781 955.3746948242188 342.6826477050781 C 953.4420166015625 335.6819152832031 950.7747192382813 328.8210144042969 947.4470825195313 322.290283203125 L 841.66015625 114.6730194091797 C 836.986328125 105.4999237060547 831.0758056640625 97.08356475830078 824.092529296875 89.65774536132813 C 817.3280029296875 82.46465301513672 809.591796875 76.23338317871094 801.0986938476563 71.13719940185547 C 784.2467041015625 61.0253791809082 764.966552734375 55.68046951293945 745.342529296875 55.68046951293945 C 737.0096435546875 55.68046951293945 728.6777954101563 56.65483474731445 720.5785522460938 58.57665252685547 C 712.241455078125 60.55501556396484 704.1068725585938 63.54901504516602 696.4005126953125 67.47574615478516 L 216.5043487548828 311.9950256347656 C 209.9736328125 315.3224792480469 203.7828979492188 319.3052062988281 198.1041717529297 323.8328247070313 C 192.5710906982422 328.2441101074219 187.4559936523438 333.2262878417969 182.9010772705078 338.6404724121094 C 178.4285430908203 343.9568481445313 174.4501800537109 349.7437438964844 171.0767211914063 355.8403015136719 C 167.7349090576172 361.8795471191406 164.9574432373047 368.2752075195313 162.8212585449219 374.8495483398438 C 160.6852722167969 381.4239196777344 159.1730804443359 388.2308349609375 158.326904296875 395.0810241699219 C 157.4725341796875 401.99609375 157.2898101806641 409.01611328125 157.7832641601563 415.9462890625 C 158.2859954833984 423.0037536621094 159.4958038330078 430.0408325195313 161.3792724609375 436.8621215820313 C 163.3121795654297 443.8628234863281 165.9796295166016 450.7239379882813 169.3072662353516 457.254638671875 L 259.8243713378906 634.9055786132813 L 257.1514587402344 636.267578125 L 114.6774444580078 708.8617553710938 C 108.1467208862305 712.189208984375 101.9559936523438 716.1719360351563 96.27726745605469 720.6995849609375 C 90.74417114257813 725.11083984375 85.62908172607422 730.093017578125 81.07417297363281 735.5072021484375 C 76.60163116455078 740.8235473632813 72.62326812744141 746.6104736328125 69.24980926513672 752.70703125 C 65.90798950195313 758.7462768554688 63.13053894042969 765.1419067382813 60.99435806274414 771.71630859375 C 58.85835647583008 778.2906494140625 57.34617614746094 785.0975341796875 56.49999237060547 791.94775390625 C 55.6456298828125 798.8628540039063 55.4629020690918 805.8828125 55.95635604858398 812.81298828125 C 56.45908355712891 819.8704833984375 57.66890335083008 826.9075317382813 59.5523567199707 833.7288208007813 C 61.48526382446289 840.7295532226563 64.15271759033203 847.5906372070313 67.48035430908203 854.1213989257813 L 173.266357421875 1061.738647460938 C 177.9403533935547 1070.911743164063 183.8510894775391 1079.328247070313 190.8343505859375 1086.754272460938 C 197.5989074707031 1093.94775390625 205.3350830078125 1100.17919921875 213.8279876708984 1105.275512695313 C 230.6803588867188 1115.388061523438 249.9603576660156 1120.732421875 269.5836181640625 1120.731201171875 C 277.9172668457031 1120.730712890625 286.249267578125 1119.755981445313 294.3478088378906 1117.834228515625 C 302.6854553222656 1115.856079101563 310.8201599121094 1112.8623046875 318.5260009765625 1108.935791015625 L 465.6258239746094 1033.984985351563 L 540.3556518554688 1180.650268554688 C 545.0296020507813 1189.823364257813 550.9403686523438 1198.239868164063 557.9236450195313 1205.665893554688 C 564.6883544921875 1212.859375 572.4247436523438 1219.0908203125 580.9177856445313 1224.187255859375 C 597.7703857421875 1234.299682617188 617.050537109375 1239.644287109375 636.673828125 1239.64306640625 M 636.6740112304688 1242.64306640625 C 596.2550659179688 1242.6455078125 557.2907104492188 1220.494995117188 537.6825561523438 1182.012329101563 L 464.3147277832031 1038.019897460938 L 319.8880004882813 1111.60888671875 C 303.748779296875 1119.832275390625 286.5351257324219 1123.72998046875 269.5838317871094 1123.731201171875 C 229.1647644042969 1123.73388671875 190.2014617919922 1101.583374023438 170.59326171875 1063.100708007813 L 64.80726623535156 855.4833984375 C 36.97562789916992 800.8613891601563 58.69344711303711 734.0194091796875 113.3154449462891 706.1886596679688 L 255.7894439697266 633.594482421875 L 166.6341705322266 458.6166381835938 C 138.8025360107422 403.9946594238281 160.5203552246094 337.1526489257813 215.1423492431641 309.3219299316406 L 695.0385131835938 64.80265045166016 C 711.177734375 56.57925796508789 728.3911743164063 52.68053817749023 745.3425903320313 52.68053817749023 C 785.7618408203125 52.68053817749023 824.7257080078125 74.8282470703125 844.333251953125 113.3110122680664 L 950.1201782226563 320.9282836914063 C 977.950927734375 375.55029296875 956.23291015625 442.3923034667969 901.611083984375 470.2230224609375 L 759.1369018554688 542.8171997070313 L 815.87255859375 654.1673583984375 L 1193.67724609375 461.6657409667969 C 1209.81640625 453.4423522949219 1227.029174804688 449.5438232421875 1243.980590820313 449.5438232421875 C 1284.39990234375 449.5438232421875 1323.364501953125 471.6922302246094 1342.972045898438 510.1750183105469 L 1448.7607421875 717.7950439453125 C 1476.59130859375 772.4169921875 1454.873413085938 839.259033203125 1400.251586914063 867.0897216796875 L 686.977294921875 1230.521606445313 C 670.8380126953125 1238.74462890625 653.6254272460938 1242.641967773438 636.6740112304688 1242.64306640625 Z" stroke="none" fill="#03ceb8"/></g></svg>