<svg xmlns="http://www.w3.org/2000/svg" width="71.563" height="71" viewBox="0 0 71.563 71"><path d="M38.866,5h31.26a4.1,4.1,0,0,1,4.438,4.423V71.6A4.08,4.08,0,0,1,70.182,76H7.367A4.086,4.086,0,0,1,3,71.647V9.339A4.082,4.082,0,0,1,7.311,5Zm-.085,1.972H7.508A2.209,2.209,0,0,0,4.972,9.508V71.492a2.209,2.209,0,0,0,2.536,2.536H70.056a2.209,2.209,0,0,0,2.536-2.536V9.508a2.209,2.209,0,0,0-2.536-2.536Z" transform="translate(-3 -5)"/><path d="M200.2,225.608v-32.33h9.875v4.043c.578-.69,1.042-1.268,1.536-1.831a10.052,10.052,0,0,1,6.9-3.451,12.98,12.98,0,0,1,7.931,1.536,10.923,10.923,0,0,1,4.423,4.818,17.7,17.7,0,0,1,1.676,7.833c.028,6.227.014,12.439.014,18.666,0,.211-.014.423-.028.69-.254.014-.479.028-.7.028-2.846,0-5.677-.014-8.523.014-.648.014-.789-.211-.789-.817.014-5.705.028-11.411,0-17.116a13.766,13.766,0,0,0-.38-3.127,4.883,4.883,0,0,0-3.3-3.55,6.478,6.478,0,0,0-5.2.085,6.188,6.188,0,0,0-3.494,6.058c.028,5.748.014,11.509,0,17.257,0,1.437.014,1.155-1.169,1.169-2.648.014-5.311,0-7.959,0A7.136,7.136,0,0,1,200.2,225.608Z" transform="translate(-172.42 -165.625)"/><path d="M94.76,234.4H92.886c-2.423,0-4.832-.014-7.255.014-.592.014-.831-.127-.831-.775q.021-15.341.014-30.682c0-.437.028-.761.62-.761q4.4.021,8.8.014a4.13,4.13,0,0,1,.521.07Z" transform="translate(-73.277 -174.42)"/><path d="M87.843,95.228a5.066,5.066,0,1,1,5.212-5.043A4.855,4.855,0,0,1,87.843,95.228Z" transform="translate(-71.558 -73.816)"/></svg>