<svg xmlns="http://www.w3.org/2000/svg" width="71.563" height="71" viewBox="0 0 71.563 71"><path d="M38.81,76H7.409A4.091,4.091,0,0,1,3,71.619V9.367A4.082,4.082,0,0,1,7.339,5H70.225a4.082,4.082,0,0,1,4.339,4.311V71.7A4.078,4.078,0,0,1,70.225,76Zm-.085-1.972H70.07c1.719,0,2.522-.817,2.522-2.55V9.494c0-1.719-.817-2.522-2.55-2.522H7.494c-1.719,0-2.522.8-2.522,2.55V71.506c0,1.719.8,2.522,2.55,2.522Z" transform="translate(-3 -5)"/><path d="M56.853,130.663H62c.014-.07.042-.155.056-.225-5.931-1.874-9.171-5.832-9.593-12.031,1.831.507,3.564,1,5.3,1.479l.085-.211c-5.353-4.522-6.635-9.932-3.635-16.44a35.325,35.325,0,0,0,25.413,12.932c-.07-.549-.127-.986-.183-1.423a12.347,12.347,0,0,1,15.778-13.2,12.7,12.7,0,0,1,5.156,3.043.972.972,0,0,0,.789.211,24.247,24.247,0,0,0,6.565-2.437c.183-.1.366-.183.676-.338a9.133,9.133,0,0,1-1.958,3.719c-.887,1.028-1.93,1.93-2.916,2.9a24.581,24.581,0,0,0,6.41-1.733c.042.056.1.113.141.169-1,1.155-1.958,2.367-3.015,3.465-.8.845-1.775,1.536-2.634,2.324a1.1,1.1,0,0,0-.352.761,36.08,36.08,0,0,1-5.593,20.117,33.011,33.011,0,0,1-16.919,13.9A35.537,35.537,0,0,1,63.615,149.4a33.74,33.74,0,0,1-12.848-4.733.692.692,0,0,1-.268-.268,25.62,25.62,0,0,0,9.368-.887,24.249,24.249,0,0,0,8.438-4.311,12.476,12.476,0,0,1-8.241-3.451A11.93,11.93,0,0,1,56.853,130.663Z" transform="translate(-43.809 -87.486)"/></svg>