<svg xmlns="http://www.w3.org/2000/svg" width="26.748" height="26.748" viewBox="0 0 26.748 26.748">
  <g id="_x33__x2C__XD_x2C__Adobe" transform="translate(-1.207 -0.712)">
    <g id="Group_468" data-name="Group 468" transform="translate(1.207 0.712)">
      <rect id="Rectangle_1406" data-name="Rectangle 1406" width="26.748" height="26.747" transform="translate(0)" fill="#ff26be"/>
      <rect id="Rectangle_1407" data-name="Rectangle 1407" width="24.394" height="24.394" transform="translate(1.177 1.177)" fill="#2e001f"/>
      <g id="Group_467" data-name="Group 467" transform="translate(5.019 7.16)">
        <g id="Group_466" data-name="Group 466">
          <path id="Path_7555" data-name="Path 7555" d="M105.882,137.4h-2.089l-2.243,4.691L99.277,137.4H97.125l3.046,6.091-3.155,6.237h2.127l2.283-4.78,2.31,4.78h2.3l-3.252-6.31Zm5.776,0v3.135h-.6a4.409,4.409,0,0,0-4.538,4.709c0,2.616,1.326,4.583,4.149,4.583a5.443,5.443,0,0,0,3.058-.719V137.4Zm0,10.626a2.2,2.2,0,0,1-.8.1c-.561,0-2.284-.247-2.284-2.979s1.98-2.95,2.455-2.95a1.014,1.014,0,0,1,.628.133v5.691Z" transform="translate(-97.016 -137.396)" fill="#ffd9f2"/>
        </g>
      </g>
    </g>
  </g>
</svg>
