<svg xmlns="http://www.w3.org/2000/svg" width="108.897" height="136.283" viewBox="0 0 108.897 136.283">
  <g id="_x31_54_x2C__Play_x2C__Video_x2C__Twitter" transform="translate(-91.592 -50.247)">
    <g id="XMLID_1_" transform="translate(91.592 50.247)">
      <path id="XMLID_8524_" d="M102.126,186.53a10.516,10.516,0,0,1-5.065-1.316,10.385,10.385,0,0,1-5.468-9.229V60.792a10.523,10.523,0,0,1,16.19-8.867l86.629,55.364a13.172,13.172,0,0,1,0,22.2l-86.629,55.364A10.472,10.472,0,0,1,102.126,186.53Zm-.006-129.645a3.9,3.9,0,0,0-1.877.488,3.848,3.848,0,0,0-2.026,3.42V175.985a3.9,3.9,0,0,0,6,3.286l86.629-55.365a6.548,6.548,0,0,0,0-11.035L104.215,57.507A3.881,3.881,0,0,0,102.119,56.885Z" transform="translate(-91.592 -50.247)" fill="#3e3c3c"/>
    </g>
    <g id="XMLID_21181_" transform="translate(115.106 96.857)">
      <path id="XMLID_8521_" d="M167.932,234.05a5.339,5.339,0,0,1-5.339-5.339V196.327a5.339,5.339,0,0,1,8.214-4.5l24.353,15.564a6.083,6.083,0,0,1,0,10.252l-24.353,15.564A5.339,5.339,0,0,1,167.932,234.05Zm1.285-35.377v27.692l21.665-13.846Z" transform="translate(-162.593 -190.988)" fill="#f05026"/>
    </g>
  </g>
</svg>
